<svg width="199" height="189" viewBox="0 0 199 189" fill="none" xmlns="http://www.w3.org/2000/svg">
<rect width="199" height="189" rx="19" fill="#9BDD7B"/>
<g clip-path="url(#clip0)">
<path d="M140.679 91.7136H77.0179V65.2482C77.0179 55.083 85.1551 46.6377 95.3203 46.535C105.588 46.4323 113.982 54.7749 113.982 65.0171V69.1243C113.982 72.5383 116.729 75.285 120.143 75.285H128.357C131.771 75.285 134.518 72.5383 134.518 69.1243V65.0171C134.518 43.4546 116.934 25.9223 95.3717 25.9993C73.8092 26.0763 56.4821 43.8397 56.4821 65.4022V91.7136H50.3214C43.519 91.7136 38 97.2325 38 104.035V145.106C38 151.909 43.519 157.428 50.3214 157.428H140.679C147.481 157.428 153 151.909 153 145.106V104.035C153 97.2325 147.481 91.7136 140.679 91.7136ZM105.768 130.731C105.768 136.404 101.173 140.999 95.5 140.999C89.827 140.999 85.2321 136.404 85.2321 130.731V118.41C85.2321 112.737 89.827 108.142 95.5 108.142C101.173 108.142 105.768 112.737 105.768 118.41V130.731Z" fill="white"/>
</g>
<defs>
<clipPath id="clip0">
<rect width="115" height="131.429" fill="white" transform="translate(38 26)"/>
</clipPath>
</defs>
</svg>
